<mxfile host="app.diagrams.net" modified="2021-08-11T06:04:10.936Z" agent="5.0 (Macintosh; Intel Mac OS X 10_15_7) AppleWebKit/537.36 (KHTML, like Gecko) Chrome/92.0.4515.131 Safari/537.36" etag="1y0-a2G78jdgPpfx1wKz" version="14.9.6" type="github">
  <diagram id="6a731a19-8d31-9384-78a2-239565b7b9f0" name="Page-1">
    <mxGraphModel dx="946" dy="589" grid="1" gridSize="10" guides="1" tooltips="1" connect="1" arrows="1" fold="1" page="1" pageScale="1" pageWidth="1169" pageHeight="827" background="none" math="0" shadow="0">
      <root>
        <mxCell id="0" />
        <mxCell id="1" parent="0" />
        <mxCell id="2" value="start" style="shape=mxgraph.flowchart.terminator;strokeWidth=2;gradientColor=none;gradientDirection=north;fontStyle=0;html=1;" parent="1" vertex="1">
          <mxGeometry x="260" y="10" width="120" height="30" as="geometry" />
        </mxCell>
        <mxCell id="3" value="新的Point到达&lt;br&gt;存入当前数组" style="shape=mxgraph.flowchart.data;strokeWidth=2;gradientColor=none;gradientDirection=north;fontStyle=0;html=1;" parent="1" vertex="1">
          <mxGeometry x="240.5" y="130" width="159" height="80" as="geometry" />
        </mxCell>
        <mxCell id="lKO3v5ER1tz3sOUfVQkC-56" style="edgeStyle=orthogonalEdgeStyle;rounded=0;orthogonalLoop=1;jettySize=auto;html=1;exitX=0.905;exitY=0.5;exitDx=0;exitDy=0;exitPerimeter=0;" edge="1" parent="1" source="5">
          <mxGeometry relative="1" as="geometry">
            <mxPoint x="510" y="290" as="targetPoint" />
          </mxGeometry>
        </mxCell>
        <mxCell id="5" value="将当前点Push到FD" style="shape=mxgraph.flowchart.data;strokeWidth=2;gradientColor=none;gradientDirection=north;fontStyle=0;html=1;" parent="1" vertex="1">
          <mxGeometry x="240.5" y="250" width="159" height="80" as="geometry" />
        </mxCell>
        <mxCell id="7" style="fontStyle=1;strokeColor=#003366;strokeWidth=1;html=1;" parent="1" source="2" target="3" edge="1">
          <mxGeometry relative="1" as="geometry" />
        </mxCell>
        <mxCell id="8" style="fontStyle=1;strokeColor=#003366;strokeWidth=1;html=1;" parent="1" source="3" target="5" edge="1">
          <mxGeometry relative="1" as="geometry" />
        </mxCell>
        <mxCell id="9" style="entryX=0.5;entryY=0;entryPerimeter=0;fontStyle=1;strokeColor=#003366;strokeWidth=1;html=1;" parent="1" source="5" edge="1">
          <mxGeometry relative="1" as="geometry">
            <mxPoint x="320" y="390" as="targetPoint" />
          </mxGeometry>
        </mxCell>
        <mxCell id="lKO3v5ER1tz3sOUfVQkC-57" value="没有" style="text;html=1;strokeColor=none;fillColor=none;align=center;verticalAlign=middle;whiteSpace=wrap;rounded=0;" vertex="1" parent="1">
          <mxGeometry x="410" y="260" width="40" height="20" as="geometry" />
        </mxCell>
        <mxCell id="lKO3v5ER1tz3sOUfVQkC-58" value="" style="endArrow=classic;html=1;entryX=1;entryY=0.5;entryDx=0;entryDy=0;entryPerimeter=0;" edge="1" parent="1" target="lKO3v5ER1tz3sOUfVQkC-84">
          <mxGeometry width="50" height="50" relative="1" as="geometry">
            <mxPoint x="509.5" y="290" as="sourcePoint" />
            <mxPoint x="510" y="90" as="targetPoint" />
          </mxGeometry>
        </mxCell>
        <mxCell id="lKO3v5ER1tz3sOUfVQkC-59" value="有分型" style="text;html=1;align=center;verticalAlign=middle;resizable=0;points=[];autosize=1;strokeColor=none;" vertex="1" parent="1">
          <mxGeometry x="315" y="340" width="50" height="20" as="geometry" />
        </mxCell>
        <mxCell id="lKO3v5ER1tz3sOUfVQkC-63" value="" style="edgeStyle=orthogonalEdgeStyle;rounded=0;orthogonalLoop=1;jettySize=auto;html=1;" edge="1" parent="1" source="lKO3v5ER1tz3sOUfVQkC-61" target="lKO3v5ER1tz3sOUfVQkC-62">
          <mxGeometry relative="1" as="geometry" />
        </mxCell>
        <mxCell id="lKO3v5ER1tz3sOUfVQkC-69" style="edgeStyle=orthogonalEdgeStyle;rounded=0;orthogonalLoop=1;jettySize=auto;html=1;exitX=0.5;exitY=1;exitDx=0;exitDy=0;entryX=0.5;entryY=0;entryDx=0;entryDy=0;" edge="1" parent="1" source="lKO3v5ER1tz3sOUfVQkC-61" target="lKO3v5ER1tz3sOUfVQkC-67">
          <mxGeometry relative="1" as="geometry" />
        </mxCell>
        <mxCell id="lKO3v5ER1tz3sOUfVQkC-61" value="第一个分型" style="shape=parallelogram;perimeter=parallelogramPerimeter;whiteSpace=wrap;html=1;fixedSize=1;" vertex="1" parent="1">
          <mxGeometry x="250" y="390" width="120" height="60" as="geometry" />
        </mxCell>
        <mxCell id="lKO3v5ER1tz3sOUfVQkC-65" value="" style="edgeStyle=orthogonalEdgeStyle;rounded=0;orthogonalLoop=1;jettySize=auto;html=1;" edge="1" parent="1" source="lKO3v5ER1tz3sOUfVQkC-62">
          <mxGeometry relative="1" as="geometry">
            <mxPoint x="510" y="290" as="targetPoint" />
            <Array as="points">
              <mxPoint x="510" y="280" />
              <mxPoint x="510" y="280" />
            </Array>
          </mxGeometry>
        </mxCell>
        <mxCell id="lKO3v5ER1tz3sOUfVQkC-62" value="存入window" style="shape=parallelogram;perimeter=parallelogramPerimeter;whiteSpace=wrap;html=1;fixedSize=1;" vertex="1" parent="1">
          <mxGeometry x="450" y="390" width="120" height="60" as="geometry" />
        </mxCell>
        <mxCell id="lKO3v5ER1tz3sOUfVQkC-66" value="Y" style="text;html=1;align=center;verticalAlign=middle;resizable=0;points=[];autosize=1;strokeColor=none;" vertex="1" parent="1">
          <mxGeometry x="400" y="400" width="20" height="20" as="geometry" />
        </mxCell>
        <mxCell id="lKO3v5ER1tz3sOUfVQkC-72" value="" style="edgeStyle=orthogonalEdgeStyle;rounded=0;orthogonalLoop=1;jettySize=auto;html=1;" edge="1" parent="1" source="lKO3v5ER1tz3sOUfVQkC-67" target="lKO3v5ER1tz3sOUfVQkC-71">
          <mxGeometry relative="1" as="geometry" />
        </mxCell>
        <mxCell id="lKO3v5ER1tz3sOUfVQkC-74" value="" style="edgeStyle=orthogonalEdgeStyle;rounded=0;orthogonalLoop=1;jettySize=auto;html=1;" edge="1" parent="1" source="lKO3v5ER1tz3sOUfVQkC-67" target="lKO3v5ER1tz3sOUfVQkC-73">
          <mxGeometry relative="1" as="geometry" />
        </mxCell>
        <mxCell id="lKO3v5ER1tz3sOUfVQkC-67" value="本分型是情况一吗" style="shape=parallelogram;perimeter=parallelogramPerimeter;whiteSpace=wrap;html=1;fixedSize=1;" vertex="1" parent="1">
          <mxGeometry x="250" y="490" width="120" height="60" as="geometry" />
        </mxCell>
        <mxCell id="lKO3v5ER1tz3sOUfVQkC-70" value="N" style="text;html=1;strokeColor=none;fillColor=none;align=center;verticalAlign=middle;whiteSpace=wrap;rounded=0;" vertex="1" parent="1">
          <mxGeometry x="320" y="460" width="40" height="20" as="geometry" />
        </mxCell>
        <mxCell id="lKO3v5ER1tz3sOUfVQkC-71" value="返回等待反向分型&lt;br&gt;" style="shape=parallelogram;perimeter=parallelogramPerimeter;whiteSpace=wrap;html=1;fixedSize=1;" vertex="1" parent="1">
          <mxGeometry x="250" y="630" width="120" height="60" as="geometry" />
        </mxCell>
        <mxCell id="lKO3v5ER1tz3sOUfVQkC-76" value="" style="edgeStyle=orthogonalEdgeStyle;rounded=0;orthogonalLoop=1;jettySize=auto;html=1;" edge="1" parent="1" source="lKO3v5ER1tz3sOUfVQkC-73" target="lKO3v5ER1tz3sOUfVQkC-75">
          <mxGeometry relative="1" as="geometry" />
        </mxCell>
        <mxCell id="lKO3v5ER1tz3sOUfVQkC-73" value="是，确认线段AB" style="shape=parallelogram;perimeter=parallelogramPerimeter;whiteSpace=wrap;html=1;fixedSize=1;" vertex="1" parent="1">
          <mxGeometry x="50" y="490" width="120" height="60" as="geometry" />
        </mxCell>
        <mxCell id="lKO3v5ER1tz3sOUfVQkC-78" value="" style="edgeStyle=orthogonalEdgeStyle;rounded=0;orthogonalLoop=1;jettySize=auto;html=1;" edge="1" parent="1" source="lKO3v5ER1tz3sOUfVQkC-75" target="lKO3v5ER1tz3sOUfVQkC-77">
          <mxGeometry relative="1" as="geometry" />
        </mxCell>
        <mxCell id="lKO3v5ER1tz3sOUfVQkC-75" value="重新设置fd检测&lt;br&gt;起点" style="shape=parallelogram;perimeter=parallelogramPerimeter;whiteSpace=wrap;html=1;fixedSize=1;" vertex="1" parent="1">
          <mxGeometry x="50" y="350" width="120" height="60" as="geometry" />
        </mxCell>
        <mxCell id="lKO3v5ER1tz3sOUfVQkC-79" value="" style="edgeStyle=orthogonalEdgeStyle;rounded=0;orthogonalLoop=1;jettySize=auto;html=1;" edge="1" parent="1" source="lKO3v5ER1tz3sOUfVQkC-77" target="5">
          <mxGeometry relative="1" as="geometry" />
        </mxCell>
        <mxCell id="lKO3v5ER1tz3sOUfVQkC-77" value="" style="shape=parallelogram;perimeter=parallelogramPerimeter;whiteSpace=wrap;html=1;fixedSize=1;" vertex="1" parent="1">
          <mxGeometry x="50" y="210" width="120" height="60" as="geometry" />
        </mxCell>
        <mxCell id="lKO3v5ER1tz3sOUfVQkC-80" value="N" style="text;html=1;align=center;verticalAlign=middle;resizable=0;points=[];autosize=1;strokeColor=none;" vertex="1" parent="1">
          <mxGeometry x="315" y="570" width="20" height="20" as="geometry" />
        </mxCell>
        <mxCell id="lKO3v5ER1tz3sOUfVQkC-81" value="Y" style="text;html=1;align=center;verticalAlign=middle;resizable=0;points=[];autosize=1;strokeColor=none;" vertex="1" parent="1">
          <mxGeometry x="200" y="500" width="20" height="20" as="geometry" />
        </mxCell>
        <mxCell id="lKO3v5ER1tz3sOUfVQkC-84" value="循环" style="shape=mxgraph.flowchart.terminator;strokeWidth=2;gradientColor=none;gradientDirection=north;fontStyle=0;html=1;" vertex="1" parent="1">
          <mxGeometry x="260" y="60" width="120" height="30" as="geometry" />
        </mxCell>
      </root>
    </mxGraphModel>
  </diagram>
</mxfile>
